<svg xmlns="http://www.w3.org/2000/svg" style="display:none"><symbol id="icon-instagram" viewBox="0 0 16 16"><path d="M8 0C5.827 0 5.541.023 4.688.062c-.852.04-1.429.146-1.938.344-.526.205-.961.493-1.406.938s-.733.88-.938 1.406C.208 3.259.102 3.836.062 4.688.023 5.541 0 5.827 0 8s.023 2.459.062 3.312c.039.852.146 1.429.344 1.938.205.525.493.961.938 1.406s.88.732 1.406.938c.509.197 1.086.305 1.938.344C5.541 15.977 5.827 16 8 16s2.459-.023 3.312-.062c.852-.039 1.429-.146 1.938-.344.525-.205.961-.492 1.406-.938s.732-.881.938-1.406c.197-.509.305-1.086.344-1.938.039-.853.062-1.139.062-3.312s-.023-2.459-.062-3.312c-.039-.852-.146-1.429-.344-1.938-.205-.526-.492-.961-.938-1.406S13.775.611 13.25.406c-.509-.198-1.086-.305-1.938-.344C10.459.023 10.173 0 8 0zm0 1.438c2.137 0 2.375.024 3.219.062.779.036 1.219.141 1.5.25.373.145.627.345.906.625s.48.533.625.906c.109.282.215.72.25 1.5.039.844.062 1.083.062 3.219 0 2.137-.023 2.375-.062 3.219-.035.779-.141 1.219-.25 1.5-.145.373-.346.627-.625.906s-.533.48-.906.625c-.281.109-.721.215-1.5.25-.844.039-1.082.062-3.219.062-2.136 0-2.375-.023-3.219-.062-.78-.035-1.218-.141-1.5-.25-.374-.145-.626-.346-.906-.625s-.48-.533-.625-.906c-.109-.281-.214-.721-.25-1.5-.039-.844-.062-1.082-.062-3.219 0-2.136.024-2.375.062-3.219.036-.78.141-1.218.25-1.5.145-.374.345-.626.625-.906s.533-.48.906-.625c.282-.109.72-.214 1.5-.25.844-.039 1.083-.062 3.219-.062zm4.281 1.343c-.53 0-.969.407-.969.938s.438.969.969.969.938-.438.938-.969-.407-.938-.938-.938zM8 3.906A4.084 4.084 0 0 0 3.906 8 4.083 4.083 0 0 0 8 12.094 4.083 4.083 0 0 0 12.094 8 4.083 4.083 0 0 0 8 3.906zm0 1.438c1.473 0 2.656 1.184 2.656 2.656S9.473 10.656 8 10.656 5.344 9.473 5.344 8 6.527 5.344 8 5.344z"/></symbol></svg>