<svg xmlns="http://www.w3.org/2000/svg" width="24" height="24" viewBox="0 0 24 24"><title>search</title><path d="M9.5,14a4.2,4.2,0,0,0,3.2-1.3A4.2,4.2,0,0,0,14,9.5a4.4,4.4,0,0,0-1.3-3.2A4.6,4.6,0,0,0,9.5,5,4.8,4.8,0,0,0,6.3,6.3,4.8,4.8,0,0,0,5,9.5a4.6,4.6,0,0,0,1.3,3.2A4.4,4.4,0,0,0,9.5,14Zm6,0,5,5L19,20.5l-5-5v-.8l-.3-.3A6,6,0,0,1,9.5,16a6.2,6.2,0,0,1-4.6-1.9A6,6,0,0,1,3,9.5,6.2,6.2,0,0,1,4.9,4.9,6.2,6.2,0,0,1,9.5,3a6,6,0,0,1,4.6,1.9A6.2,6.2,0,0,1,16,9.5a6.3,6.3,0,0,1-.5,2.2,6.2,6.2,0,0,1-1.1,2l.3.3Z"/></svg>
