<?xml version="1.0" encoding="utf-8"?>
<!-- Generator: Adobe Illustrator 16.0.0, SVG Export Plug-In . SVG Version: 6.00 Build 0)  -->
<!DOCTYPE svg PUBLIC "-//W3C//DTD SVG 1.1//EN" "http://www.w3.org/Graphics/SVG/1.1/DTD/svg11.dtd">
<svg version="1.1" id="Layer_1" xmlns="http://www.w3.org/2000/svg" xmlns:xlink="http://www.w3.org/1999/xlink" x="0px" y="0px"
	 width="16px" height="16px" viewBox="0 0 16 16" enable-background="new 0 0 16 16" xml:space="preserve">
<path d="M8,0C5.827,0,5.541,0.023,4.688,0.062C3.836,0.102,3.259,0.208,2.75,0.406C2.224,0.611,1.789,0.899,1.344,1.344
	S0.611,2.224,0.406,2.75C0.208,3.259,0.102,3.836,0.062,4.688C0.023,5.541,0,5.827,0,8s0.023,2.459,0.062,3.312
	c0.039,0.852,0.146,1.429,0.344,1.938c0.205,0.525,0.493,0.961,0.938,1.406s0.88,0.732,1.406,0.938
	c0.509,0.197,1.086,0.305,1.938,0.344C5.541,15.977,5.827,16,8,16s2.459-0.023,3.312-0.062c0.852-0.039,1.429-0.146,1.938-0.344
	c0.525-0.205,0.961-0.492,1.406-0.938s0.732-0.881,0.938-1.406c0.197-0.509,0.305-1.086,0.344-1.938C15.977,10.459,16,10.173,16,8
	s-0.023-2.459-0.062-3.312c-0.039-0.852-0.146-1.429-0.344-1.938c-0.205-0.526-0.492-0.961-0.938-1.406s-0.881-0.733-1.406-0.938
	c-0.509-0.198-1.086-0.305-1.938-0.344C10.459,0.023,10.173,0,8,0z M8,1.438c2.137,0,2.375,0.024,3.219,0.062
	c0.779,0.036,1.219,0.141,1.5,0.25c0.373,0.145,0.627,0.345,0.906,0.625s0.48,0.533,0.625,0.906c0.109,0.282,0.215,0.72,0.25,1.5
	C14.539,5.625,14.562,5.864,14.562,8c0,2.137-0.023,2.375-0.062,3.219c-0.035,0.779-0.141,1.219-0.25,1.5
	c-0.145,0.373-0.346,0.627-0.625,0.906s-0.533,0.48-0.906,0.625c-0.281,0.109-0.721,0.215-1.5,0.25
	c-0.844,0.039-1.082,0.062-3.219,0.062c-2.136,0-2.375-0.023-3.219-0.062c-0.78-0.035-1.218-0.141-1.5-0.25
	c-0.374-0.145-0.626-0.346-0.906-0.625s-0.48-0.533-0.625-0.906c-0.109-0.281-0.214-0.721-0.25-1.5
	C1.461,10.375,1.438,10.137,1.438,8c0-2.136,0.024-2.375,0.062-3.219c0.036-0.78,0.141-1.218,0.25-1.5
	c0.145-0.374,0.345-0.626,0.625-0.906s0.533-0.48,0.906-0.625c0.282-0.109,0.72-0.214,1.5-0.25C5.625,1.461,5.864,1.438,8,1.438z
	 M12.281,2.781c-0.53,0-0.969,0.407-0.969,0.938s0.438,0.969,0.969,0.969s0.938-0.438,0.938-0.969S12.812,2.781,12.281,2.781z
	 M8,3.906C5.731,3.906,3.906,5.731,3.906,8c0,2.27,1.825,4.094,4.094,4.094c2.27,0,4.094-1.824,4.094-4.094
	C12.094,5.731,10.27,3.906,8,3.906z M8,5.344c1.473,0,2.656,1.184,2.656,2.656S9.473,10.656,8,10.656S5.344,9.473,5.344,8
	S6.527,5.344,8,5.344z"/>
</svg>
