<svg xmlns="http://www.w3.org/2000/svg" width="26" height="26" viewBox="0 0 26 26">
	<style>
		polygon {
			fill: #000;
		}
		@media (prefers-color-scheme: dark) {
			polygon {
				fill: #fff;
			}
		}
	</style>
	<polygon points="26,2 26,0.7 24.7,2 "/>
	<polygon points="26,5 26,3 23.7,3 21.7,5 "/>
	<polygon points="26,8 26,6 20.7,6 18.7,8 "/>
	<polygon points="23.9,11 26,9.4 26,9 17.7,9 15.7,11 "/>
	<polygon points="12.7,14 20.1,14 22.6,12 14.7,12 "/>
	<polygon points="9.7,17 16.2,17 18.8,15 11.7,15 "/>
	<polygon points="6.7,20 12.3,20 14.9,18 8.7,18 "/>
	<polygon points="3.7,23 8.5,23 11.1,21 5.7,21 "/>
	<polygon points="2.7,24 0.7,26 4.6,26 7.2,24 "/>
	<polygon points="2,18.7 0,21.3 0,25.3 2,23.3 "/>
	<polygon points="3,17.4 3,22.3 5,20.3 5,14.9 "/>
	<polygon points="6,13.6 6,19.3 8,17.3 8,11 "/>
	<polygon points="9,9.8 9,16.3 11,14.3 11,7.2 "/>
	<polygon points="12,5.9 12,13.3 14,11.3 14,3.4 "/>
	<polygon points="15,10.3 17,8.3 17,0 16.6,0 15,2.1 "/>
	<polygon points="20,0 18,0 18,7.3 20,5.3 "/>
	<polygon points="23,0 21,0 21,4.3 23,2.3 "/>
	<polygon points="24,0 24,1.3 25.3,0 "/>
</svg>
