<?xml version="1.0" encoding="utf-8"?><svg width="24" height="528" viewBox="0 0 24 528" xmlns="http://www.w3.org/2000/svg" xmlns:xlink="http://www.w3.org/1999/xlink"><svg width="24" height="24" viewBox="0 0 24 24" id="add" xmlns="http://www.w3.org/2000/svg"><path d="M19 13h-6v6h-2v-6H5v-2h6V5h2v6h6v2z"/></svg><svg width="24" height="24" viewBox="0 0 24 24" id="arrow_back_ios" y="24" xmlns="http://www.w3.org/2000/svg"><path d="M17.51 3.87 15.73 2.1 5.84 12l9.9 9.9 1.77-1.77L9.38 12l8.13-8.13z"/></svg><svg width="24" height="24" viewBox="0 0 24 24" id="arrow_drop_down" y="48" xmlns="http://www.w3.org/2000/svg"><path d="m7 10 5 5 5-5H7z"/></svg><svg width="24" height="24" viewBox="0 0 24 24" id="arrow_drop_up" y="72" xmlns="http://www.w3.org/2000/svg"><path d="m7 14 5-5 5 5H7z"/></svg><svg width="24" height="24" viewBox="0 0 24 24" id="arrow_forward_ios" y="96" xmlns="http://www.w3.org/2000/svg"><path d="M6.23 20.23 8 22l10-10L8 2 6.23 3.77 14.46 12z"/></svg><svg width="24" height="24" viewBox="0 0 24 24" id="chevron_left" y="120" xmlns="http://www.w3.org/2000/svg"><path d="M15.41 7.41 14 6l-6 6 6 6 1.41-1.41L10.83 12l4.58-4.59z"/></svg><svg width="24" height="24" viewBox="0 0 24 24" id="chevron_right" y="144" xmlns="http://www.w3.org/2000/svg"><path d="M10 6 8.59 7.41 13.17 12l-4.58 4.59L10 18l6-6-6-6z"/></svg><svg width="24" height="24" viewBox="0 0 24 24" id="close" y="168" xmlns="http://www.w3.org/2000/svg"><path d="M19 6.41 17.59 5 12 10.59 6.41 5 5 6.41 10.59 12 5 17.59 6.41 19 12 13.41 17.59 19 19 17.59 13.41 12 19 6.41z"/></svg><svg width="24" height="24" viewBox="0 0 24 24" id="expand_less" y="192" xmlns="http://www.w3.org/2000/svg"><path d="m12 8-6 6 1.41 1.41L12 10.83l4.59 4.58L18 14l-6-6z"/></svg><svg width="24" height="24" viewBox="0 0 24 24" id="expand_more" y="216" xmlns="http://www.w3.org/2000/svg"><path d="M16.59 8.59 12 13.17 7.41 8.59 6 10l6 6 6-6-1.41-1.41z"/></svg><svg viewBox="0 0 24 24" width="24" height="24" id="facebook" y="240" xmlns="http://www.w3.org/2000/svg"><path d="M9.101 23.691v-7.98H6.627v-3.667h2.474v-1.58c0-4.085 1.848-5.978 5.858-5.978.401 0 .955.042 1.468.103a8.68 8.68 0 0 1 1.141.195v3.325a8.623 8.623 0 0 0-.653-.036 26.805 26.805 0 0 0-.733-.009c-.707 0-1.259.096-1.675.309a1.686 1.686 0 0 0-.679.622c-.258.42-.374.995-.374 1.752v1.297h3.919l-.386 2.103-.287 1.564h-3.246v8.245C19.396 23.238 24 18.179 24 12.044c0-6.627-5.373-12-12-12s-12 5.373-12 12c0 5.628 3.874 10.35 9.101 11.647Z"/></svg><svg width="24" height="24" viewBox="0 0 24 24" id="file_download" y="264" xmlns="http://www.w3.org/2000/svg"><path d="M19 9h-4V3H9v6H5l7 7 7-7zM5 18v2h14v-2H5z"/></svg><svg width="24" height="24" viewBox="0 0 24 24" id="insert_drive_file" y="288" xmlns="http://www.w3.org/2000/svg"><path d="M4.01 2 4 22h16V8l-6-6H4.01zM13 9V3.5L18.5 9H13z"/></svg><svg viewBox="0 0 24 24" width="24" height="24" id="instagram" y="312" xmlns="http://www.w3.org/2000/svg"><path d="M7.03.084c-1.277.06-2.149.264-2.91.563a5.874 5.874 0 0 0-2.124 1.388 5.878 5.878 0 0 0-1.38 2.127C.321 4.926.12 5.8.064 7.076.008 8.354-.005 8.764.001 12.023c.007 3.259.021 3.667.083 4.947.061 1.277.264 2.149.563 2.911.308.789.72 1.457 1.388 2.123a5.872 5.872 0 0 0 2.129 1.38c.763.295 1.636.496 2.913.552 1.278.056 1.689.069 4.947.063 3.257-.007 3.668-.021 4.947-.082 1.28-.06 2.147-.265 2.91-.563a5.881 5.881 0 0 0 2.123-1.388 5.881 5.881 0 0 0 1.38-2.129c.295-.763.496-1.636.551-2.912.056-1.28.07-1.69.063-4.948-.006-3.258-.02-3.667-.081-4.947-.06-1.28-.264-2.148-.564-2.911a5.892 5.892 0 0 0-1.387-2.123 5.857 5.857 0 0 0-2.128-1.38C19.074.322 18.202.12 16.924.066 15.647.009 15.236-.006 11.977 0 8.718.008 8.31.021 7.03.084m.14 21.693c-1.17-.05-1.805-.245-2.228-.408a3.736 3.736 0 0 1-1.382-.895 3.695 3.695 0 0 1-.9-1.378c-.165-.423-.363-1.058-.417-2.228-.06-1.264-.072-1.644-.08-4.848-.006-3.204.006-3.583.061-4.848.05-1.169.246-1.805.408-2.228.216-.561.477-.96.895-1.382a3.705 3.705 0 0 1 1.379-.9c.423-.165 1.057-.361 2.227-.417 1.265-.06 1.644-.072 4.848-.08 3.203-.006 3.583.006 4.85.062 1.168.05 1.804.244 2.227.408.56.216.96.475 1.382.895.421.42.681.817.9 1.378.165.422.362 1.056.417 2.227.06 1.265.074 1.645.08 4.848.005 3.203-.006 3.583-.061 4.848-.051 1.17-.245 1.805-.408 2.23-.216.56-.477.96-.896 1.38a3.705 3.705 0 0 1-1.378.9c-.422.165-1.058.362-2.226.418-1.266.06-1.645.072-4.85.079-3.204.007-3.582-.006-4.848-.06m9.783-16.192a1.44 1.44 0 1 0 1.437-1.442 1.44 1.44 0 0 0-1.437 1.442M5.839 12.012a6.161 6.161 0 1 0 12.323-.024 6.162 6.162 0 0 0-12.323.024M8 12.008A4 4 0 1 1 12.008 16 4 4 0 0 1 8 12.008"/></svg><svg width="24" height="24" viewBox="0 0 24 24" id="launch" y="336" xmlns="http://www.w3.org/2000/svg"><path d="M19 19H5V5h7V3H3v18h18v-9h-2v7zM14 3v2h3.59l-9.83 9.83 1.41 1.41L19 6.41V10h2V3h-7z"/></svg><svg viewBox="0 0 24 24" width="24" height="24" id="linkedin" y="360" xmlns="http://www.w3.org/2000/svg"><path d="M20.447 20.452h-3.554v-5.569c0-1.328-.027-3.037-1.852-3.037-1.853 0-2.136 1.445-2.136 2.939v5.667H9.351V9h3.414v1.561h.046c.477-.9 1.637-1.85 3.37-1.85 3.601 0 4.267 2.37 4.267 5.455v6.286zM5.337 7.433a2.062 2.062 0 0 1-2.063-2.065 2.064 2.064 0 1 1 2.063 2.065zm1.782 13.019H3.555V9h3.564v11.452zM22.225 0H1.771C.792 0 0 .774 0 1.729v20.542C0 23.227.792 24 1.771 24h20.451C23.2 24 24 23.227 24 22.271V1.729C24 .774 23.2 0 22.222 0h.003z"/></svg><svg width="24" height="24" viewBox="0 0 24 24" id="mail" y="384" xmlns="http://www.w3.org/2000/svg"><path d="M22 4H2v16h20V4zm-2 4-8 5-8-5V6l8 5 8-5v2z"/></svg><svg width="24" height="24" viewBox="0 0 24 24" id="menu" y="408" xmlns="http://www.w3.org/2000/svg"><path d="M3 18h18v-2H3v2zm0-5h18v-2H3v2zm0-7v2h18V6H3z"/></svg><svg viewBox="0 0 24 24" width="24" height="24" id="pinterest" y="432" xmlns="http://www.w3.org/2000/svg"><path d="M12.017 0C5.396 0 .029 5.367.029 11.987c0 5.079 3.158 9.417 7.618 11.162-.105-.949-.199-2.403.041-3.439.219-.937 1.406-5.957 1.406-5.957s-.359-.72-.359-1.781c0-1.663.967-2.911 2.168-2.911 1.024 0 1.518.769 1.518 1.688 0 1.029-.653 2.567-.992 3.992-.285 1.193.6 2.165 1.775 2.165 2.128 0 3.768-2.245 3.768-5.487 0-2.861-2.063-4.869-5.008-4.869-3.41 0-5.409 2.562-5.409 5.199 0 1.033.394 2.143.889 2.741.099.12.112.225.085.345-.09.375-.293 1.199-.334 1.363-.053.225-.172.271-.401.165-1.495-.69-2.433-2.878-2.433-4.646 0-3.776 2.748-7.252 7.92-7.252 4.158 0 7.392 2.967 7.392 6.923 0 4.135-2.607 7.462-6.233 7.462-1.214 0-2.354-.629-2.758-1.379l-.749 2.848c-.269 1.045-1.004 2.352-1.498 3.146 1.123.345 2.306.535 3.55.535 6.607 0 11.985-5.365 11.985-11.987C23.97 5.39 18.592.026 11.985.026L12.017 0z"/></svg><svg viewBox="0 0 24 24" width="24" height="24" id="twitter" y="456" xmlns="http://www.w3.org/2000/svg"><path d="M21.543 7.104c.015.211.015.423.015.636 0 6.507-4.954 14.01-14.01 14.01v-.003A13.94 13.94 0 0 1 0 19.539a9.88 9.88 0 0 0 7.287-2.041 4.93 4.93 0 0 1-4.6-3.42 4.916 4.916 0 0 0 2.223-.084A4.926 4.926 0 0 1 .96 9.167v-.062a4.887 4.887 0 0 0 2.235.616A4.928 4.928 0 0 1 1.67 3.148a13.98 13.98 0 0 0 10.15 5.144 4.929 4.929 0 0 1 8.39-4.49 9.868 9.868 0 0 0 3.128-1.196 4.941 4.941 0 0 1-2.165 2.724A9.828 9.828 0 0 0 24 4.555a10.019 10.019 0 0 1-2.457 2.549z"/></svg><svg viewBox="0 0 24 24" width="24" height="24" id="vimeo" y="480" xmlns="http://www.w3.org/2000/svg"><path d="M23.977 6.417c-.105 2.338-1.74 5.543-4.894 9.609-3.268 4.247-6.026 6.37-8.29 6.37-1.41 0-2.578-1.294-3.553-3.881L5.322 11.4c-.72-2.584-1.488-3.878-2.312-3.878-.18 0-.806.378-1.881 1.132l-1.13-1.457A315.06 315.06 0 0 0 3.502 4.07C5.08 2.702 6.266 1.985 7.055 1.91c1.867-.18 3.016 1.1 3.447 3.839.465 2.953.789 4.789.97 5.507.54 2.45 1.132 3.674 1.777 3.674.502 0 1.256-.796 2.265-2.385 1.004-1.59 1.54-2.797 1.612-3.628.144-1.371-.395-2.061-1.614-2.061-.574 0-1.167.12-1.777.39C14.92 3.38 17.169 1.49 20.497 1.61c2.473.06 3.628 1.664 3.493 4.797z"/></svg><svg viewBox="0 0 24 24" width="24" height="24" id="youtube" y="504" xmlns="http://www.w3.org/2000/svg"><path d="M23.498 6.186a3.016 3.016 0 0 0-2.122-2.136C19.505 3.545 12 3.545 12 3.545s-7.505 0-9.377.505A3.017 3.017 0 0 0 .502 6.186C0 8.07 0 12 0 12s0 3.93.502 5.814a3.016 3.016 0 0 0 2.122 2.136c1.871.505 9.376.505 9.376.505s7.505 0 9.377-.505a3.015 3.015 0 0 0 2.122-2.136C24 15.93 24 12 24 12s0-3.93-.502-5.814zM9.545 15.568V8.432L15.818 12l-6.273 3.568z"/></svg></svg>