<?xml version="1.0" encoding="utf-8"?><svg width="24" height="744" viewBox="0 0 24 744" xmlns="http://www.w3.org/2000/svg" xmlns:xlink="http://www.w3.org/1999/xlink"><svg width="24" height="24" viewBox="0 0 24 24" id="add" xmlns="http://www.w3.org/2000/svg"><path d="M19 13h-6v6h-2v-6H5v-2h6V5h2v6h6v2z"/></svg><svg width="24" height="24" viewBox="0 0 24 24" id="arrow_back_ios" y="24" xmlns="http://www.w3.org/2000/svg"><path d="M17.51 3.87 15.73 2.1 5.84 12l9.9 9.9 1.77-1.77L9.38 12l8.13-8.13z"/></svg><svg width="24" height="24" viewBox="0 0 24 24" id="arrow_drop_down" y="48" xmlns="http://www.w3.org/2000/svg"><path d="m7 10 5 5 5-5H7z"/></svg><svg width="24" height="24" viewBox="0 0 24 24" id="arrow_drop_up" y="72" xmlns="http://www.w3.org/2000/svg"><path d="m7 14 5-5 5 5H7z"/></svg><svg width="24" height="24" viewBox="0 0 24 24" id="arrow_forward_ios" y="96" xmlns="http://www.w3.org/2000/svg"><path d="M6.23 20.23 8 22l10-10L8 2 6.23 3.77 14.46 12z"/></svg><svg viewBox="0 0 24 24" width="24" height="24" id="bluesky" y="120" xmlns="http://www.w3.org/2000/svg"><path d="M5.202 2.857C7.954 4.922 10.913 9.11 12 11.358c1.087-2.247 4.046-6.436 6.798-8.501C20.783 1.366 24 .213 24 3.883c0 .732-.42 6.156-.667 7.037-.856 3.061-3.978 3.842-6.755 3.37 4.854.826 6.089 3.562 3.422 6.299-5.065 5.196-7.28-1.304-7.847-2.97-.104-.305-.152-.448-.153-.327 0-.121-.05.022-.153.327-.568 1.666-2.782 8.166-7.847 2.97-2.667-2.737-1.432-5.473 3.422-6.3-2.777.473-5.899-.308-6.755-3.369C.42 10.04 0 4.615 0 3.883c0-3.67 3.217-2.517 5.202-1.026"/></svg><svg width="24" height="24" viewBox="0 0 24 24" id="chevron_left" y="144" xmlns="http://www.w3.org/2000/svg"><path d="M15.41 7.41 14 6l-6 6 6 6 1.41-1.41L10.83 12l4.58-4.59z"/></svg><svg width="24" height="24" viewBox="0 0 24 24" id="chevron_right" y="168" xmlns="http://www.w3.org/2000/svg"><path d="M10 6 8.59 7.41 13.17 12l-4.58 4.59L10 18l6-6-6-6z"/></svg><svg width="24" height="24" viewBox="0 0 24 24" id="close" y="192" xmlns="http://www.w3.org/2000/svg"><path d="M19 6.41 17.59 5 12 10.59 6.41 5 5 6.41 10.59 12 5 17.59 6.41 19 12 13.41 17.59 19 19 17.59 13.41 12 19 6.41z"/></svg><svg viewBox="0 0 24 24" width="24" height="24" id="digg" y="216" xmlns="http://www.w3.org/2000/svg"><path d="M17.76 8.16v8.16h3.84v.96h-3.84v1.92H24V8.16h-6.24zm-7.2 0v8.16h3.84v.96h-3.84v1.92h6.24V8.16h-6.24zM3.84 4.8v3.36H0v8.16h6.24V4.8h-2.4zM9.6 8.16H7.2v8.16h2.4V8.16zm12 6.24h-1.44v-4.32h1.44v4.32zm-17.76 0H2.4v-4.32h1.44v4.32zm10.56 0h-1.44v-4.32h1.44v4.32zM9.6 4.8H7.2v2.4h2.4V4.8z"/></svg><svg width="24" height="24" viewBox="0 0 24 24" id="expand_less" y="240" xmlns="http://www.w3.org/2000/svg"><path d="m12 8-6 6 1.41 1.41L12 10.83l4.59 4.58L18 14l-6-6z"/></svg><svg width="24" height="24" viewBox="0 0 24 24" id="expand_more" y="264" xmlns="http://www.w3.org/2000/svg"><path d="M16.59 8.59 12 13.17 7.41 8.59 6 10l6 6 6-6-1.41-1.41z"/></svg><svg viewBox="0 0 24 24" width="24" height="24" id="facebook" y="288" xmlns="http://www.w3.org/2000/svg"><path d="M9.101 23.691v-7.98H6.627v-3.667h2.474v-1.58c0-4.085 1.848-5.978 5.858-5.978.401 0 .955.042 1.468.103a8.68 8.68 0 0 1 1.141.195v3.325a8.623 8.623 0 0 0-.653-.036 26.805 26.805 0 0 0-.733-.009c-.707 0-1.259.096-1.675.309a1.686 1.686 0 0 0-.679.622c-.258.42-.374.995-.374 1.752v1.297h3.919l-.386 2.103-.287 1.564h-3.246v8.245C19.396 23.238 24 18.179 24 12.044c0-6.627-5.373-12-12-12s-12 5.373-12 12c0 5.628 3.874 10.35 9.101 11.647Z"/></svg><svg width="24" height="24" viewBox="0 0 24 24" id="file_download" y="312" xmlns="http://www.w3.org/2000/svg"><path d="M19 9h-4V3H9v6H5l7 7 7-7zM5 18v2h14v-2H5z"/></svg><svg viewBox="0 0 24 24" width="24" height="24" id="github" y="336" xmlns="http://www.w3.org/2000/svg"><path d="M12 .297c-6.63 0-12 5.373-12 12 0 5.303 3.438 9.8 8.205 11.385.6.113.82-.258.82-.577 0-.285-.01-1.04-.015-2.04-3.338.724-4.042-1.61-4.042-1.61C4.422 18.07 3.633 17.7 3.633 17.7c-1.087-.744.084-.729.084-.729 1.205.084 1.838 1.236 1.838 1.236 1.07 1.835 2.809 1.305 3.495.998.108-.776.417-1.305.76-1.605-2.665-.3-5.466-1.332-5.466-5.93 0-1.31.465-2.38 1.235-3.22-.135-.303-.54-1.523.105-3.176 0 0 1.005-.322 3.3 1.23.96-.267 1.98-.399 3-.405 1.02.006 2.04.138 3 .405 2.28-1.552 3.285-1.23 3.285-1.23.645 1.653.24 2.873.12 3.176.765.84 1.23 1.91 1.23 3.22 0 4.61-2.805 5.625-5.475 5.92.42.36.81 1.096.81 2.22 0 1.606-.015 2.896-.015 3.286 0 .315.21.69.825.57C20.565 22.092 24 17.592 24 12.297c0-6.627-5.373-12-12-12"/></svg><svg width="24" height="24" viewBox="0 0 24 24" id="insert_drive_file" y="360" xmlns="http://www.w3.org/2000/svg"><path d="M4.01 2 4 22h16V8l-6-6H4.01zM13 9V3.5L18.5 9H13z"/></svg><svg viewBox="0 0 24 24" width="24" height="24" id="instagram" y="384" xmlns="http://www.w3.org/2000/svg"><path d="M7.03.084c-1.277.06-2.149.264-2.91.563a5.874 5.874 0 0 0-2.124 1.388 5.878 5.878 0 0 0-1.38 2.127C.321 4.926.12 5.8.064 7.076.008 8.354-.005 8.764.001 12.023c.007 3.259.021 3.667.083 4.947.061 1.277.264 2.149.563 2.911.308.789.72 1.457 1.388 2.123a5.872 5.872 0 0 0 2.129 1.38c.763.295 1.636.496 2.913.552 1.278.056 1.689.069 4.947.063 3.257-.007 3.668-.021 4.947-.082 1.28-.06 2.147-.265 2.91-.563a5.881 5.881 0 0 0 2.123-1.388 5.881 5.881 0 0 0 1.38-2.129c.295-.763.496-1.636.551-2.912.056-1.28.07-1.69.063-4.948-.006-3.258-.02-3.667-.081-4.947-.06-1.28-.264-2.148-.564-2.911a5.892 5.892 0 0 0-1.387-2.123 5.857 5.857 0 0 0-2.128-1.38C19.074.322 18.202.12 16.924.066 15.647.009 15.236-.006 11.977 0 8.718.008 8.31.021 7.03.084m.14 21.693c-1.17-.05-1.805-.245-2.228-.408a3.736 3.736 0 0 1-1.382-.895 3.695 3.695 0 0 1-.9-1.378c-.165-.423-.363-1.058-.417-2.228-.06-1.264-.072-1.644-.08-4.848-.006-3.204.006-3.583.061-4.848.05-1.169.246-1.805.408-2.228.216-.561.477-.96.895-1.382a3.705 3.705 0 0 1 1.379-.9c.423-.165 1.057-.361 2.227-.417 1.265-.06 1.644-.072 4.848-.08 3.203-.006 3.583.006 4.85.062 1.168.05 1.804.244 2.227.408.56.216.96.475 1.382.895.421.42.681.817.9 1.378.165.422.362 1.056.417 2.227.06 1.265.074 1.645.08 4.848.005 3.203-.006 3.583-.061 4.848-.051 1.17-.245 1.805-.408 2.23-.216.56-.477.96-.896 1.38a3.705 3.705 0 0 1-1.378.9c-.422.165-1.058.362-2.226.418-1.266.06-1.645.072-4.85.079-3.204.007-3.582-.006-4.848-.06m9.783-16.192a1.44 1.44 0 1 0 1.437-1.442 1.44 1.44 0 0 0-1.437 1.442M5.839 12.012a6.161 6.161 0 1 0 12.323-.024 6.162 6.162 0 0 0-12.323.024M8 12.008A4 4 0 1 1 12.008 16 4 4 0 0 1 8 12.008"/></svg><svg width="24" height="24" viewBox="0 0 24 24" id="launch" y="408" xmlns="http://www.w3.org/2000/svg"><path d="M19 19H5V5h7V3H3v18h18v-9h-2v7zM14 3v2h3.59l-9.83 9.83 1.41 1.41L19 6.41V10h2V3h-7z"/></svg><svg viewBox="0 0 24 24" width="24" height="24" id="linkedin" y="432" xmlns="http://www.w3.org/2000/svg"><path d="M20.447 20.452h-3.554v-5.569c0-1.328-.027-3.037-1.852-3.037-1.853 0-2.136 1.445-2.136 2.939v5.667H9.351V9h3.414v1.561h.046c.477-.9 1.637-1.85 3.37-1.85 3.601 0 4.267 2.37 4.267 5.455v6.286zM5.337 7.433a2.062 2.062 0 0 1-2.063-2.065 2.064 2.064 0 1 1 2.063 2.065zm1.782 13.019H3.555V9h3.564v11.452zM22.225 0H1.771C.792 0 0 .774 0 1.729v20.542C0 23.227.792 24 1.771 24h20.451C23.2 24 24 23.227 24 22.271V1.729C24 .774 23.2 0 22.222 0h.003z"/></svg><svg width="24" height="24" viewBox="0 0 24 24" id="mail" y="456" xmlns="http://www.w3.org/2000/svg"><path d="M22 4H2v16h20V4zm-2 4-8 5-8-5V6l8 5 8-5v2z"/></svg><svg viewBox="0 0 24 24" width="24" height="24" id="mastodon" y="480" xmlns="http://www.w3.org/2000/svg"><path d="M23.268 5.313c-.35-2.578-2.617-4.61-5.304-5.004C17.51.242 15.792 0 11.813 0h-.03c-3.98 0-4.835.242-5.288.309C3.882.692 1.496 2.518.917 5.127.64 6.412.61 7.837.661 9.143c.074 1.874.088 3.745.26 5.611.118 1.24.325 2.47.62 3.68.55 2.237 2.777 4.098 4.96 4.857 2.336.792 4.849.923 7.256.38.265-.061.527-.132.786-.213.585-.184 1.27-.39 1.774-.753a.057.057 0 0 0 .023-.043v-1.809a.052.052 0 0 0-.02-.041.053.053 0 0 0-.046-.01 20.282 20.282 0 0 1-4.709.545c-2.73 0-3.463-1.284-3.674-1.818a5.593 5.593 0 0 1-.319-1.433.053.053 0 0 1 .066-.054c1.517.363 3.072.546 4.632.546.376 0 .75 0 1.125-.01 1.57-.044 3.224-.124 4.768-.422.038-.008.077-.015.11-.024 2.435-.464 4.753-1.92 4.989-5.604.008-.145.03-1.52.03-1.67.002-.512.167-3.63-.024-5.545zm-3.748 9.195h-2.561V8.29c0-1.309-.55-1.976-1.67-1.976-1.23 0-1.846.79-1.846 2.35v3.403h-2.546V8.663c0-1.56-.617-2.35-1.848-2.35-1.112 0-1.668.668-1.67 1.977v6.218H4.822V8.102c0-1.31.337-2.35 1.011-3.12.696-.77 1.608-1.164 2.74-1.164 1.311 0 2.302.5 2.962 1.498l.638 1.06.638-1.06c.66-.999 1.65-1.498 2.96-1.498 1.13 0 2.043.395 2.74 1.164.675.77 1.012 1.81 1.012 3.12z"/></svg><svg width="24" height="24" viewBox="0 0 24 24" id="menu" y="504" xmlns="http://www.w3.org/2000/svg"><path d="M3 18h18v-2H3v2zm0-5h18v-2H3v2zm0-7v2h18V6H3z"/></svg><svg viewBox="0 0 24 24" width="24" height="24" id="pinterest" y="528" xmlns="http://www.w3.org/2000/svg"><path d="M12.017 0C5.396 0 .029 5.367.029 11.987c0 5.079 3.158 9.417 7.618 11.162-.105-.949-.199-2.403.041-3.439.219-.937 1.406-5.957 1.406-5.957s-.359-.72-.359-1.781c0-1.663.967-2.911 2.168-2.911 1.024 0 1.518.769 1.518 1.688 0 1.029-.653 2.567-.992 3.992-.285 1.193.6 2.165 1.775 2.165 2.128 0 3.768-2.245 3.768-5.487 0-2.861-2.063-4.869-5.008-4.869-3.41 0-5.409 2.562-5.409 5.199 0 1.033.394 2.143.889 2.741.099.12.112.225.085.345-.09.375-.293 1.199-.334 1.363-.053.225-.172.271-.401.165-1.495-.69-2.433-2.878-2.433-4.646 0-3.776 2.748-7.252 7.92-7.252 4.158 0 7.392 2.967 7.392 6.923 0 4.135-2.607 7.462-6.233 7.462-1.214 0-2.354-.629-2.758-1.379l-.749 2.848c-.269 1.045-1.004 2.352-1.498 3.146 1.123.345 2.306.535 3.55.535 6.607 0 11.985-5.365 11.985-11.987C23.97 5.39 18.592.026 11.985.026L12.017 0z"/></svg><svg viewBox="0 0 24 24" width="24" height="24" id="pocket" y="552" xmlns="http://www.w3.org/2000/svg"><path d="m18.813 10.259-5.646 5.419a1.649 1.649 0 0 1-2.282 0l-5.646-5.419a1.645 1.645 0 0 1 2.276-2.376l4.511 4.322 4.517-4.322a1.643 1.643 0 0 1 2.326.049 1.64 1.64 0 0 1-.045 2.326l-.011.001zm5.083-7.546a2.163 2.163 0 0 0-2.041-1.436H2.179c-.9 0-1.717.564-2.037 1.405-.094.25-.142.511-.142.774v7.245l.084 1.441c.348 3.277 2.047 6.142 4.682 8.139.045.036.094.07.143.105l.03.023a11.899 11.899 0 0 0 4.694 2.072c.786.158 1.591.24 2.389.24.739 0 1.481-.067 2.209-.204.088-.029.176-.045.264-.06.023 0 .049-.015.074-.029a12.002 12.002 0 0 0 4.508-2.025l.029-.031.135-.105c2.627-1.995 4.324-4.862 4.686-8.148L24 10.678V3.445c0-.251-.031-.5-.121-.742l.017.01z"/></svg><svg viewBox="0 0 24 24" width="24" height="24" id="reddit" y="576" xmlns="http://www.w3.org/2000/svg"><path d="M12 0C5.373 0 0 5.373 0 12c0 3.314 1.343 6.314 3.515 8.485l-2.286 2.286A.72.72 0 0 0 1.738 24H12c6.627 0 12-5.373 12-12S18.627 0 12 0Zm4.388 3.199a1.999 1.999 0 1 1-1.947 2.46v.002a2.368 2.368 0 0 0-2.032 2.341v.007c1.776.067 3.4.567 4.686 1.363a2.802 2.802 0 1 1 2.908 4.753c-.088 3.256-3.637 5.876-7.997 5.876-4.361 0-7.905-2.617-7.998-5.87a2.8 2.8 0 0 1 1.189-5.34c.645 0 1.239.218 1.712.585 1.275-.79 2.881-1.291 4.64-1.365v-.01a3.229 3.229 0 0 1 2.88-3.207 2 2 0 0 1 1.959-1.595Zm-8.085 8.376c-.784 0-1.459.78-1.506 1.797-.047 1.016.64 1.429 1.426 1.429.786 0 1.371-.369 1.418-1.385.047-1.017-.553-1.841-1.338-1.841Zm7.406 0c-.786 0-1.385.824-1.338 1.841.047 1.017.634 1.385 1.418 1.385.785 0 1.473-.413 1.426-1.429-.046-1.017-.721-1.797-1.506-1.797Zm-3.703 4.013c-.974 0-1.907.048-2.77.135a.222.222 0 0 0-.183.305 3.199 3.199 0 0 0 2.953 1.964 3.2 3.2 0 0 0 2.953-1.964.222.222 0 0 0-.184-.305 27.75 27.75 0 0 0-2.769-.135Z"/></svg><svg viewBox="0 0 24 24" width="24" height="24" id="threads" y="600" xmlns="http://www.w3.org/2000/svg"><path d="M12.186 24h-.007c-3.581-.024-6.334-1.205-8.184-3.509C2.35 18.44 1.5 15.586 1.472 12.01v-.017c.03-3.579.879-6.43 2.525-8.482C5.845 1.205 8.6.024 12.18 0h.014c2.746.02 5.043.725 6.826 2.098 1.677 1.29 2.858 3.13 3.509 5.467l-2.04.569c-1.104-3.96-3.898-5.984-8.304-6.015-2.91.022-5.11.936-6.54 2.717C4.307 6.504 3.616 8.914 3.589 12c.027 3.086.718 5.496 2.057 7.164 1.43 1.783 3.631 2.698 6.54 2.717 2.623-.02 4.358-.631 5.8-2.045 1.647-1.613 1.618-3.593 1.09-4.798-.31-.71-.873-1.3-1.634-1.75-.192 1.352-.622 2.446-1.284 3.272-.886 1.102-2.14 1.704-3.73 1.79-1.202.065-2.361-.218-3.259-.801-1.063-.689-1.685-1.74-1.752-2.964-.065-1.19.408-2.285 1.33-3.082.88-.76 2.119-1.207 3.583-1.291a13.853 13.853 0 0 1 3.02.142c-.126-.742-.375-1.332-.75-1.757-.513-.586-1.308-.883-2.359-.89h-.029c-.844 0-1.992.232-2.721 1.32l-1.757-1.18c.98-1.454 2.568-2.256 4.478-2.256h.044c3.194.02 5.097 1.975 5.287 5.388.108.046.216.094.321.142 1.49.7 2.58 1.761 3.154 3.07.797 1.82.871 4.79-1.548 7.158-1.85 1.81-4.094 2.628-7.277 2.65Zm1.003-11.69c-.242 0-.487.007-.739.021-1.836.103-2.98.946-2.916 2.143.067 1.256 1.452 1.839 2.784 1.767 1.224-.065 2.818-.543 3.086-3.71a10.5 10.5 0 0 0-2.215-.221z"/></svg><svg viewBox="0 0 24 24" width="24" height="24" id="tumblr" y="624" xmlns="http://www.w3.org/2000/svg"><path d="M14.563 24c-5.093 0-7.031-3.756-7.031-6.411V9.747H5.116V6.648c3.63-1.313 4.512-4.596 4.71-6.469C9.84.051 9.941 0 9.999 0h3.517v6.114h4.801v3.633h-4.82v7.47c.016 1.001.375 2.371 2.207 2.371h.09c.631-.02 1.486-.205 1.936-.419l1.156 3.425c-.436.636-2.4 1.374-4.156 1.404h-.178l.011.002z"/></svg><svg viewBox="0 0 24 24" width="24" height="24" id="twitter" y="648" xmlns="http://www.w3.org/2000/svg"><path d="M21.543 7.104c.015.211.015.423.015.636 0 6.507-4.954 14.01-14.01 14.01v-.003A13.94 13.94 0 0 1 0 19.539a9.88 9.88 0 0 0 7.287-2.041 4.93 4.93 0 0 1-4.6-3.42 4.916 4.916 0 0 0 2.223-.084A4.926 4.926 0 0 1 .96 9.167v-.062a4.887 4.887 0 0 0 2.235.616A4.928 4.928 0 0 1 1.67 3.148a13.98 13.98 0 0 0 10.15 5.144 4.929 4.929 0 0 1 8.39-4.49 9.868 9.868 0 0 0 3.128-1.196 4.941 4.941 0 0 1-2.165 2.724A9.828 9.828 0 0 0 24 4.555a10.019 10.019 0 0 1-2.457 2.549z"/></svg><svg viewBox="0 0 24 24" width="24" height="24" id="vimeo" y="672" xmlns="http://www.w3.org/2000/svg"><path d="M23.977 6.417c-.105 2.338-1.74 5.543-4.894 9.609-3.268 4.247-6.026 6.37-8.29 6.37-1.41 0-2.578-1.294-3.553-3.881L5.322 11.4c-.72-2.584-1.488-3.878-2.312-3.878-.18 0-.806.378-1.881 1.132l-1.13-1.457A315.06 315.06 0 0 0 3.502 4.07C5.08 2.702 6.266 1.985 7.055 1.91c1.867-.18 3.016 1.1 3.447 3.839.465 2.953.789 4.789.97 5.507.54 2.45 1.132 3.674 1.777 3.674.502 0 1.256-.796 2.265-2.385 1.004-1.59 1.54-2.797 1.612-3.628.144-1.371-.395-2.061-1.614-2.061-.574 0-1.167.12-1.777.39C14.92 3.38 17.169 1.49 20.497 1.61c2.473.06 3.628 1.664 3.493 4.797z"/></svg><svg viewBox="0 0 24 24" width="24" height="24" id="x" y="696" xmlns="http://www.w3.org/2000/svg"><path d="M14.234 10.162 22.977 0h-2.072l-7.591 8.824L7.251 0H.258l9.168 13.343L.258 24H2.33l8.016-9.318L16.749 24h6.993zm-2.837 3.299-.929-1.329L3.076 1.56h3.182l5.965 8.532.929 1.329 7.754 11.09h-3.182z"/></svg><svg viewBox="0 0 24 24" width="24" height="24" id="youtube" y="720" xmlns="http://www.w3.org/2000/svg"><path d="M23.498 6.186a3.016 3.016 0 0 0-2.122-2.136C19.505 3.545 12 3.545 12 3.545s-7.505 0-9.377.505A3.017 3.017 0 0 0 .502 6.186C0 8.07 0 12 0 12s0 3.93.502 5.814a3.016 3.016 0 0 0 2.122 2.136c1.871.505 9.376.505 9.376.505s7.505 0 9.377-.505a3.015 3.015 0 0 0 2.122-2.136C24 15.93 24 12 24 12s0-3.93-.502-5.814zM9.545 15.568V8.432L15.818 12l-6.273 3.568z"/></svg></svg>